<mxfile host="app.diagrams.net" modified="2023-09-05T19:39:24.645Z" agent="Mozilla/5.0 (Windows NT 10.0; Win64; x64) AppleWebKit/537.36 (KHTML, like Gecko) Chrome/116.0.0.0 Safari/537.36" etag="nA_LJlXjB_mWjmh1b3re" version="21.7.2" type="github">
  <diagram name="Page-1" id="55a83fd1-7818-8e21-69c5-c3457e3827bb">
    <mxGraphModel dx="838" dy="417" grid="1" gridSize="10" guides="1" tooltips="1" connect="1" arrows="1" fold="1" page="1" pageScale="1" pageWidth="1100" pageHeight="850" background="none" math="0" shadow="0">
      <root>
        <mxCell id="0" />
        <mxCell id="1" parent="0" />
        <mxCell id="69ecfefc5c41e42c-11" value="" style="html=1;fillColor=#CCCCCC;strokeColor=#6881B3;gradientColor=none;gradientDirection=north;strokeWidth=2;shape=mxgraph.networks.comm_link_edge;html=1;labelBackgroundColor=none;endArrow=none;fontFamily=Verdana;fontSize=22;fontColor=#000000;" parent="1" edge="1">
          <mxGeometry width="100" height="100" relative="1" as="geometry">
            <mxPoint x="660" y="485.2380952380952" as="sourcePoint" />
            <mxPoint x="750" y="430" as="targetPoint" />
            <Array as="points">
              <mxPoint x="830" y="380" />
            </Array>
          </mxGeometry>
        </mxCell>
        <mxCell id="pD3QBt0DdSWu_rdYpNJO-1" value="office building" style="sketch=0;outlineConnect=0;strokeColor=#001DBC;fillColor=#0050ef;dashed=0;verticalLabelPosition=bottom;verticalAlign=top;align=center;html=1;fontSize=12;fontStyle=0;aspect=fixed;shape=mxgraph.aws4.illustration_office_building;pointerEvents=1;fontColor=#ffffff;strokeWidth=1;" vertex="1" parent="1">
          <mxGeometry x="260" y="249" width="100" height="71" as="geometry" />
        </mxCell>
        <mxCell id="pD3QBt0DdSWu_rdYpNJO-4" value="" style="fontColor=#ffffff;verticalAlign=top;verticalLabelPosition=bottom;labelPosition=center;align=center;html=1;outlineConnect=0;fillColor=#0050ef;strokeColor=#001DBC;gradientDirection=north;strokeWidth=2;shape=mxgraph.networks.server;" vertex="1" parent="1">
          <mxGeometry x="710" y="325" width="90" height="100" as="geometry" />
        </mxCell>
        <mxCell id="pD3QBt0DdSWu_rdYpNJO-5" value="" style="image;aspect=fixed;perimeter=ellipsePerimeter;html=1;align=center;shadow=0;dashed=0;spacingTop=3;image=img/lib/active_directory/web_server.svg;" vertex="1" parent="1">
          <mxGeometry x="735" y="275" width="40" height="50" as="geometry" />
        </mxCell>
        <mxCell id="pD3QBt0DdSWu_rdYpNJO-10" value="" style="html=1;fillColor=#CCCCCC;strokeColor=#6881B3;gradientColor=none;gradientDirection=north;strokeWidth=2;shape=mxgraph.networks.comm_link_edge;html=1;labelBackgroundColor=none;endArrow=none;fontFamily=Verdana;fontSize=22;fontColor=#000000;" edge="1" parent="1">
          <mxGeometry width="100" height="100" relative="1" as="geometry">
            <mxPoint x="576" y="392" as="sourcePoint" />
            <mxPoint x="596" y="474" as="targetPoint" />
            <Array as="points">
              <mxPoint x="776" y="302.5" />
            </Array>
          </mxGeometry>
        </mxCell>
        <mxCell id="pD3QBt0DdSWu_rdYpNJO-11" value="" style="html=1;fillColor=#CCCCCC;strokeColor=#6881B3;gradientColor=none;gradientDirection=north;strokeWidth=2;shape=mxgraph.networks.comm_link_edge;html=1;labelBackgroundColor=none;endArrow=none;fontFamily=Verdana;fontSize=22;fontColor=#000000;" edge="1" parent="1">
          <mxGeometry width="100" height="100" relative="1" as="geometry">
            <mxPoint x="422" y="406" as="sourcePoint" />
            <mxPoint x="522" y="370" as="targetPoint" />
            <Array as="points">
              <mxPoint x="462" y="386" />
              <mxPoint x="592" y="296" />
            </Array>
          </mxGeometry>
        </mxCell>
        <mxCell id="pD3QBt0DdSWu_rdYpNJO-13" value="" style="html=1;fillColor=#CCCCCC;strokeColor=#6881B3;gradientColor=none;gradientDirection=north;strokeWidth=2;shape=mxgraph.networks.comm_link_edge;html=1;labelBackgroundColor=none;endArrow=none;fontFamily=Verdana;fontSize=22;fontColor=#000000;entryX=0.225;entryY=0.098;entryDx=0;entryDy=0;entryPerimeter=0;exitX=0.575;exitY=1.049;exitDx=0;exitDy=0;exitPerimeter=0;" edge="1" parent="1" source="pD3QBt0DdSWu_rdYpNJO-15" target="pD3QBt0DdSWu_rdYpNJO-17">
          <mxGeometry width="100" height="100" relative="1" as="geometry">
            <mxPoint x="590" y="204.5" as="sourcePoint" />
            <mxPoint x="640" y="310" as="targetPoint" />
            <Array as="points">
              <mxPoint x="790" y="115" />
            </Array>
          </mxGeometry>
        </mxCell>
        <mxCell id="pD3QBt0DdSWu_rdYpNJO-14" value="" style="fontColor=#ffffff;verticalAlign=top;verticalLabelPosition=bottom;labelPosition=center;align=center;html=1;outlineConnect=0;fillColor=#0050ef;strokeColor=#001DBC;gradientDirection=north;strokeWidth=2;shape=mxgraph.networks.business_center;" vertex="1" parent="1">
          <mxGeometry x="170" y="220" width="90" height="100" as="geometry" />
        </mxCell>
        <mxCell id="pD3QBt0DdSWu_rdYpNJO-16" value="" style="html=1;fillColor=#e51400;strokeColor=#B20000;gradientDirection=north;strokeWidth=2;shape=mxgraph.networks.comm_link_edge;html=1;labelBackgroundColor=none;endArrow=none;fontFamily=Verdana;fontSize=22;fontColor=#000000;" edge="1" parent="1">
          <mxGeometry width="100" height="100" relative="1" as="geometry">
            <mxPoint x="368" y="287" as="sourcePoint" />
            <mxPoint x="532" y="170.43137254901967" as="targetPoint" />
            <Array as="points" />
          </mxGeometry>
        </mxCell>
        <mxCell id="pD3QBt0DdSWu_rdYpNJO-15" value="" style="sketch=0;pointerEvents=1;shadow=0;dashed=0;html=1;strokeColor=#B20000;labelPosition=center;verticalLabelPosition=bottom;verticalAlign=top;outlineConnect=0;align=center;shape=mxgraph.office.concepts.node_generic;fillColor=#e51400;fontColor=#ffffff;" vertex="1" parent="1">
          <mxGeometry x="524" y="104" width="80" height="82" as="geometry" />
        </mxCell>
        <mxCell id="pD3QBt0DdSWu_rdYpNJO-17" value="" style="sketch=0;pointerEvents=1;shadow=0;dashed=0;html=1;strokeColor=none;labelPosition=center;verticalLabelPosition=bottom;verticalAlign=top;outlineConnect=0;align=center;shape=mxgraph.office.concepts.node_generic;fillColor=#2072B8;" vertex="1" parent="1">
          <mxGeometry x="530" y="310" width="80" height="82" as="geometry" />
        </mxCell>
        <mxCell id="pD3QBt0DdSWu_rdYpNJO-18" value="" style="sketch=0;pointerEvents=1;shadow=0;dashed=0;html=1;strokeColor=none;labelPosition=center;verticalLabelPosition=bottom;verticalAlign=top;outlineConnect=0;align=center;shape=mxgraph.office.concepts.node_generic;fillColor=#2072B8;" vertex="1" parent="1">
          <mxGeometry x="581" y="460" width="80" height="82" as="geometry" />
        </mxCell>
        <mxCell id="pD3QBt0DdSWu_rdYpNJO-19" value="" style="sketch=0;pointerEvents=1;shadow=0;dashed=0;html=1;strokeColor=none;labelPosition=center;verticalLabelPosition=bottom;verticalAlign=top;outlineConnect=0;align=center;shape=mxgraph.office.concepts.node_generic;fillColor=#2072B8;" vertex="1" parent="1">
          <mxGeometry x="340" y="384" width="80" height="82" as="geometry" />
        </mxCell>
        <mxCell id="pD3QBt0DdSWu_rdYpNJO-21" value="" style="sketch=0;pointerEvents=1;shadow=0;dashed=0;html=1;strokeColor=none;labelPosition=center;verticalLabelPosition=bottom;verticalAlign=top;outlineConnect=0;align=center;shape=mxgraph.office.concepts.node_generic;fillColor=#2072B8;" vertex="1" parent="1">
          <mxGeometry x="240" y="104" width="80" height="82" as="geometry" />
        </mxCell>
        <mxCell id="pD3QBt0DdSWu_rdYpNJO-24" value="" style="shape=image;html=1;verticalAlign=top;verticalLabelPosition=bottom;labelBackgroundColor=#ffffff;imageAspect=0;aspect=fixed;image=https://cdn0.iconfinder.com/data/icons/kameleon-free-pack/110/Hacker-128.png" vertex="1" parent="1">
          <mxGeometry x="360" y="70" width="128" height="128" as="geometry" />
        </mxCell>
        <mxCell id="pD3QBt0DdSWu_rdYpNJO-34" value="" style="html=1;shadow=0;dashed=0;align=center;verticalAlign=middle;shape=mxgraph.arrows2.arrow;dy=0.67;dx=20;notch=0;fillColor=#e51400;fontColor=#ffffff;strokeColor=#B20000;" vertex="1" parent="1">
          <mxGeometry x="464" y="130" width="60" height="30" as="geometry" />
        </mxCell>
        <mxCell id="pD3QBt0DdSWu_rdYpNJO-35" value="" style="html=1;shadow=0;dashed=0;align=center;verticalAlign=middle;shape=mxgraph.arrows2.arrow;dy=0.67;dx=20;notch=0;fillColor=#001dbc;fontColor=#ffffff;strokeColor=#001DBC;rotation=-180;" vertex="1" parent="1">
          <mxGeometry x="320" y="130" width="60" height="30" as="geometry" />
        </mxCell>
        <mxCell id="pD3QBt0DdSWu_rdYpNJO-37" style="edgeStyle=orthogonalEdgeStyle;rounded=0;orthogonalLoop=1;jettySize=auto;html=1;exitX=0;exitY=0;exitDx=20;exitDy=10.05;exitPerimeter=0;entryX=0.213;entryY=0.186;entryDx=0;entryDy=0;entryPerimeter=0;" edge="1" parent="1" source="pD3QBt0DdSWu_rdYpNJO-35" target="pD3QBt0DdSWu_rdYpNJO-35">
          <mxGeometry relative="1" as="geometry" />
        </mxCell>
        <mxCell id="pD3QBt0DdSWu_rdYpNJO-38" value="&lt;b&gt;Hacker&lt;/b&gt;" style="text;strokeColor=none;align=center;fillColor=none;html=1;verticalAlign=middle;whiteSpace=wrap;rounded=0;fontColor=#FF0000;" vertex="1" parent="1">
          <mxGeometry x="394" y="74" width="60" height="30" as="geometry" />
        </mxCell>
        <mxCell id="pD3QBt0DdSWu_rdYpNJO-39" value="&lt;b&gt;Node 1&lt;/b&gt;" style="text;strokeColor=none;align=center;fillColor=none;html=1;verticalAlign=middle;whiteSpace=wrap;rounded=0;fontColor=#FF0000;" vertex="1" parent="1">
          <mxGeometry x="534" y="74" width="60" height="30" as="geometry" />
        </mxCell>
        <mxCell id="pD3QBt0DdSWu_rdYpNJO-40" value="&lt;span&gt;Node 1&lt;/span&gt;" style="text;strokeColor=none;align=center;fillColor=none;html=1;verticalAlign=middle;whiteSpace=wrap;rounded=0;fontStyle=1;fontColor=#0000CC;" vertex="1" parent="1">
          <mxGeometry x="250" y="74" width="60" height="30" as="geometry" />
        </mxCell>
        <mxCell id="pD3QBt0DdSWu_rdYpNJO-41" value="&lt;span&gt;Node 2&lt;/span&gt;" style="text;strokeColor=none;align=center;fillColor=none;html=1;verticalAlign=middle;whiteSpace=wrap;rounded=0;fontStyle=1;fontColor=#0000CC;" vertex="1" parent="1">
          <mxGeometry x="581" y="280" width="60" height="30" as="geometry" />
        </mxCell>
        <mxCell id="pD3QBt0DdSWu_rdYpNJO-43" value="&lt;span&gt;Node 3&lt;/span&gt;" style="text;strokeColor=none;align=center;fillColor=none;html=1;verticalAlign=middle;whiteSpace=wrap;rounded=0;fontStyle=1;fontColor=#0000CC;" vertex="1" parent="1">
          <mxGeometry x="350" y="354" width="60" height="30" as="geometry" />
        </mxCell>
        <mxCell id="pD3QBt0DdSWu_rdYpNJO-44" value="&lt;span&gt;Node 4&lt;/span&gt;" style="text;strokeColor=none;align=center;fillColor=none;html=1;verticalAlign=middle;whiteSpace=wrap;rounded=0;fontStyle=1;fontColor=#0000CC;" vertex="1" parent="1">
          <mxGeometry x="594" y="430" width="60" height="30" as="geometry" />
        </mxCell>
        <mxCell id="pD3QBt0DdSWu_rdYpNJO-45" value="&lt;span&gt;Server&lt;/span&gt;" style="text;strokeColor=none;align=center;fillColor=none;html=1;verticalAlign=middle;whiteSpace=wrap;rounded=0;fontStyle=1;fontColor=#0000CC;" vertex="1" parent="1">
          <mxGeometry x="725" y="249" width="60" height="30" as="geometry" />
        </mxCell>
        <mxCell id="pD3QBt0DdSWu_rdYpNJO-46" value="&lt;span&gt;Factory&lt;/span&gt;" style="text;strokeColor=none;align=center;fillColor=none;html=1;verticalAlign=middle;whiteSpace=wrap;rounded=0;fontStyle=1;fontColor=#0000CC;" vertex="1" parent="1">
          <mxGeometry x="235" y="210" width="60" height="30" as="geometry" />
        </mxCell>
        <mxCell id="pD3QBt0DdSWu_rdYpNJO-47" value="" style="verticalLabelPosition=bottom;verticalAlign=top;html=1;shape=mxgraph.basic.rect;fillColor2=none;strokeWidth=2;size=20;indent=5;fillColor=none;strokeColor=#0030bc;" vertex="1" parent="1">
          <mxGeometry x="160" y="210" width="210" height="120" as="geometry" />
        </mxCell>
        <mxCell id="pD3QBt0DdSWu_rdYpNJO-48" value="" style="verticalLabelPosition=bottom;verticalAlign=top;html=1;shape=mxgraph.basic.rect;fillColor2=none;strokeWidth=2;size=20;indent=5;fillColor=none;strokeColor=#0030bc;" vertex="1" parent="1">
          <mxGeometry x="700" y="250" width="110" height="180" as="geometry" />
        </mxCell>
      </root>
    </mxGraphModel>
  </diagram>
</mxfile>
